{
	"asset": {
		"generator": "Tilt Brush 18.6.e2ff70c06",
		"version": "1.1",
		"copyright": "Unknown."
	},
	"buffers": {
		"sketch": {
			"byteLength": 13404,
			"type": "arraybuffer",
			"uri": "sketch.bin"
		}
	},
	"accessors": {
		"accessor_position_Spikes_cf7f0059-7aeb-53a4-2b67-c83d863a9ffa_0_0": {
			"bufferView": "vec3BufferView",
			"byteOffset": 0,
			"byteStride": 12,
			"componentType": 5126,
			"count": 192,
			"max": [ -0.6054929, 1.633655, 0.0936162 ],
			"min": [ -0.6514301, 1.102657, 0.05279908 ],
			"type": "VEC3"
		 },
		"accessor_normal_Spikes_cf7f0059-7aeb-53a4-2b67-c83d863a9ffa_0_0": {
			"bufferView": "vec3BufferView",
			"byteOffset": 2304,
			"byteStride": 12,
			"componentType": 5126,
			"count": 192,
			"max": [ 0.8876439, 0, 0.9989874 ],
			"min": [ -0.8426529, 0, -0.5384572 ],
			"type": "VEC3"
		 },
		"accessor_color_Spikes_cf7f0059-7aeb-53a4-2b67-c83d863a9ffa_0_0": {
			"bufferView": "vec4BufferView",
			"byteOffset": 0,
			"byteStride": 16,
			"componentType": 5126,
			"count": 192,
			"max": [ 0.509804, 0.509804, 0.509804, 1 ],
			"min": [ 0.509804, 0.509804, 0.509804, 1 ],
			"type": "VEC4"
		 },
		"accessor_tangent_Spikes_cf7f0059-7aeb-53a4-2b67-c83d863a9ffa_0_0": {
			"bufferView": "vec4BufferView",
			"byteOffset": 3072,
			"byteStride": 16,
			"componentType": 5126,
			"count": 192,
			"max": [ 0.8876439, 0, 0.9989874, 1 ],
			"min": [ -0.887644, 0, -0.9989874, 1 ],
			"type": "VEC4"
		 },
		"accessor_uv0_Spikes_cf7f0059-7aeb-53a4-2b67-c83d863a9ffa_0_0": {
			"bufferView": "vec2BufferView",
			"byteOffset": 0,
			"byteStride": 8,
			"componentType": 5126,
			"count": 192,
			"max": [ 0.9666666, 1 ],
			"min": [ 0, 0 ],
			"type": "VEC2"
		 },
		"accessor_indices_0_Spikes_cf7f0059-7aeb-53a4-2b67-c83d863a9ffa_0_0": {
			"bufferView": "ushortBufferView",
			"byteOffset": 0,
			"byteStride": 0,
			"componentType": 5123,
			"count": 558,
			"max": [ 191 ],
			"min": [ 0 ],
			"type": "SCALAR"
		 }
	},
	"bufferViews": {
		"ushortBufferView": {
			"buffer": "sketch",
			"byteLength": 1116,
			"byteOffset": 0,
			"target": 34963
		},
		"vec2BufferView": {
			"buffer": "sketch",
			"byteLength": 1536,
			"byteOffset": 1116,
			"target": 34962
		},
		"vec3BufferView": {
			"buffer": "sketch",
			"byteLength": 4608,
			"byteOffset": 2652,
			"target": 34962
		},
		"vec4BufferView": {
			"buffer": "sketch",
			"byteLength": 6144,
			"byteOffset": 7260,
			"target": 34962
		}
	},
	"meshes": {
		"mesh_Spikes_cf7f0059-7aeb-53a4-2b67-c83d863a9ffa_0_0": {
			"name": "mesh_Spikes_cf7f0059-7aeb-53a4-2b67-c83d863a9ffa_0_0",
			"primitives": [
				{
					"attributes": {
						"POSITION": "accessor_position_Spikes_cf7f0059-7aeb-53a4-2b67-c83d863a9ffa_0_0",
						"NORMAL": "accessor_normal_Spikes_cf7f0059-7aeb-53a4-2b67-c83d863a9ffa_0_0",
						"COLOR": "accessor_color_Spikes_cf7f0059-7aeb-53a4-2b67-c83d863a9ffa_0_0",
						"TANGENT": "accessor_tangent_Spikes_cf7f0059-7aeb-53a4-2b67-c83d863a9ffa_0_0",
						"TEXCOORD_0": "accessor_uv0_Spikes_cf7f0059-7aeb-53a4-2b67-c83d863a9ffa_0_0"
					},
					"indices": "accessor_indices_0_Spikes_cf7f0059-7aeb-53a4-2b67-c83d863a9ffa_0_0",
					"material": "material_cf7f0059-7aeb-53a4-2b67-c83d863a9ffa",
					"mode": 4
				}
			]
		}
	},
	"shaders": {
		"vertex_cf7f0059-7aeb-53a4-2b67-c83d863a9ffa": {
			"type": 35633,
			"uri": "https://www.tiltbrush.com/shaders/brushes/Spikes-cf7f0059-7aeb-53a4-2b67-c83d863a9ffa/Spikes-cf7f0059-7aeb-53a4-2b67-c83d863a9ffa-v10.0-vertex.glsl"
		},
		"fragment_cf7f0059-7aeb-53a4-2b67-c83d863a9ffa": {
			"type": 35632,
			"uri": "https://www.tiltbrush.com/shaders/brushes/Spikes-cf7f0059-7aeb-53a4-2b67-c83d863a9ffa/Spikes-cf7f0059-7aeb-53a4-2b67-c83d863a9ffa-v10.0-fragment.glsl"
		}
	},
	"programs": {
		"program_cf7f0059-7aeb-53a4-2b67-c83d863a9ffa": {
			"attributes": [
				"a_position",
				"a_normal",
				"a_color",
				"a_tangent",
				"a_texcoord0"				
			],
			"vertexShader": "vertex_cf7f0059-7aeb-53a4-2b67-c83d863a9ffa",
			"fragmentShader": "fragment_cf7f0059-7aeb-53a4-2b67-c83d863a9ffa"
		}
	},
	"techniques": {
		"technique_cf7f0059-7aeb-53a4-2b67-c83d863a9ffa": {
			"program": "program_cf7f0059-7aeb-53a4-2b67-c83d863a9ffa",
			"parameters": {
				"position": {
					"type": 35665,
					"semantic": "POSITION"
				},
				"normal": {
					"type": 35665,
					"semantic": "NORMAL"
				},
				"color": {
					"type": 35666,
					"semantic": "COLOR"
				},
				"tangent": {
					"type": 35666,
					"semantic": "TANGENT"
				},
				"texcoord0": {
					"type": 35664,
					"semantic": "TEXCOORD_0"
				},
				"modelViewMatrix": {
					"type": 35676,
					"semantic": "MODELVIEW"
				},
				"projectionMatrix": {
					"type": 35676,
					"semantic": "PROJECTION"
				},
				"normalMatrix": {
					"type": 35675,
					"semantic": "MODELVIEWINVERSETRANSPOSE"
				},
				"SceneLight_0_matrix": {
					"type": 35676,
					"semantic": "MODELVIEW",
					"node": "node_SceneLight_0_-1110"
				},
				"SceneLight_0_color": {
					"type": 35666,
					"node": "node_SceneLight_0_-1110"
				},
				"SceneLight_1_matrix": {
					"type": 35676,
					"semantic": "MODELVIEW",
					"node": "node_SceneLight_1_-1116"
				},
				"SceneLight_1_color": {
					"type": 35666,
					"node": "node_SceneLight_1_-1116"
				},
				"ambient_light_color": {
					"type": 35666
				},
				"Color": {
					"type": 35666
				}				
			},
			"attributes": {
				"a_position": "position",
				"a_normal": "normal",
				"a_color": "color",
				"a_tangent": "tangent",
				"a_texcoord0": "texcoord0"				
			},
			"uniforms": {
				"u_modelViewMatrix": "modelViewMatrix",
				"u_projectionMatrix": "projectionMatrix",
				"u_normalMatrix": "normalMatrix",
				"u_SceneLight_0_matrix": "SceneLight_0_matrix",
				"u_SceneLight_0_color": "SceneLight_0_color",
				"u_SceneLight_1_matrix": "SceneLight_1_matrix",
				"u_SceneLight_1_color": "SceneLight_1_color",
				"u_ambient_light_color": "ambient_light_color",
				"u_Color": "Color"				
			},
			"states": {
				"enable": [
					2929,
					2884
				],
				"functions": {
					"depthMask": [true]
				}
			}
		}
	},
	"materials": {
		"material_cf7f0059-7aeb-53a4-2b67-c83d863a9ffa": {
			"technique": "technique_cf7f0059-7aeb-53a4-2b67-c83d863a9ffa",
			"values": {
				"SceneLight_0_color": [0.7780392, 0.8156863, 0.9913726, 1],
				"SceneLight_1_color": [0.4282353, 0.4211765, 0.3458824, 1],
				"ambient_light_color": [0.3921569, 0.3921569, 0.3921569, 1],
				"Color": [1, 1, 1, 1]				
			},
			"name": "material_cf7f0059-7aeb-53a4-2b67-c83d863a9ffa"
		}
	},
	"nodes": {
		"node_Spikes_cf7f0059-7aeb-53a4-2b67-c83d863a9ffa_0_0": {
			"name": "node_Spikes_cf7f0059-7aeb-53a4-2b67-c83d863a9ffa_0_0",
			"meshes": [
				"mesh_Spikes_cf7f0059-7aeb-53a4-2b67-c83d863a9ffa_0_0"
			],
			"matrix": [1, 0, 0, 0, 0, 1, 0, 0, 0, 0, 1, 0, 0, 0, 0, 1]
		},
		"node_SceneLight_0_-1110": {
			"name": "node_SceneLight_0_-1110",
			"light": "SceneLight_0",
			"matrix": [0.898794, 0.2191856, -0.3796406, 0, -0.4383712, 0.449397, -0.7783785, 0, -1.490116E-08, 0.8660254, 0.4999999, 0, 0.587167, -0.7616336, 0.5463973, 1]
		},
		"node_SceneLight_1_-1116": {
			"name": "node_SceneLight_1_-1116",
			"light": "SceneLight_1",
			"matrix": [0.7660444, -0.4924039, -0.4131759, 0, -0.6427876, -0.5868242, -0.4924039, 0, 8.940697E-08, 0.6427876, -0.7660446, 0, 0.587167, -0.7872577, 0.4010761, 1]
		}
	},
	"scene": "defaultScene",
	"scenes": {
		"defaultScene": {
			"nodes": [
				"node_Spikes_cf7f0059-7aeb-53a4-2b67-c83d863a9ffa_0_0",
				"node_SceneLight_0_-1110",
				"node_SceneLight_1_-1116"
			],
			"extras": {
				"TB_EnvironmentGuid": "ab080599-e465-4a6d-8587-43bf495af68b",
				"TB_Environment": "Standard",
				"TB_UseGradient": "true",
				"TB_SkyColorA": "0.2745098, 0.2745098, 0.3176471",
				"TB_SkyColorB": "0.03529412, 0.03529412, 0.08627451",
				"TB_SkyGradientDirection": "0, 1, 0",
				"TB_FogColor": "0.1647059, 0.1647059, 0.2078431",
				"TB_FogDensity": "0.0025",
				"TB_SkyColorHorizon": "0.2745098, 0.2745098, 0.3176471",
				"TB_SkyColorZenith": "0.03529412, 0.03529412, 0.08627451"
			}
		}
	}
}